<svg xmlns="http://www.w3.org/2000/svg" id="Layer_2" data-name="Layer 2" width="406px" height="85px" viewBox="-10 3 180 62.36">
  <defs>
    <style>
      .cls-1 {
        fill: none;
      }

      .cls-1, .cls-2, .cls-3 {
        stroke-width: px;
      }

      .cls-2 {
        fill: #e76f4f;
      }

      .cls-3 {
        fill: #00b3f0;
      }
    </style>
  </defs>
  <g id="Layer_1-2" data-name="Layer 1">
    <g>
      <g>
        <path class="cls-3" d="m37.79,32.7c-3.08-1.65-3.27-2.35-3.27-3.31s.85-1.65,2.5-1.65c2.31,0,4.69,1,6.65,2.73v-2.5c-2.19-1.61-4.69-2.27-6.8-2.27-3.04,0-4.73,1.54-4.73,3.69,0,1.85.69,3.11,4.11,5.07,4.61,2.69,5.96,4.15,5.96,7.27,0,3.27-2.58,5.34-6.69,5.34-2.96,0-5.57-.92-7.61-2.5v2.42c2.23,1.42,4.69,2.19,7.77,2.19,5.65,0,9-3.19,9-7.42,0-3.69-1.35-6.11-6.88-9.07Zm18.22,4.46h-4.04v11.65h2.5v-9.57h1.42c2.61,0,3.73.73,5.69,4.27l2.92,5.31h2.81l-3.61-6.42c-2.15-3.77-3.92-5.23-7.69-5.23ZM15.3,28.13c3,0,6.23.85,9,2.27v-2.19c-2.88-1.46-6.11-2.19-9.03-2.19-6.88,0-10.84,4.08-10.84,9.76s4.04,9.61,10.38,9.61c1.85,0,4-.27,5.92-.85v-6.65h-5.92v2h3.54v3c-1.08.31-2.31.5-3.5.5-5.42,0-7.92-3.23-7.92-7.61s2.58-7.65,8.38-7.65Zm17.88,9.23c4.42,2.42,4.77,3.19,4.77,4.38s-.96,1.96-2.69,1.96c-2.42,0-5.23-1.35-7.34-3.5v2.5c1.85,1.77,4.38,3.08,7.46,3.08s4.96-1.65,4.96-4-1.12-3.57-5.65-6.19c-2.77-1.61-4.31-3.23-4.31-6.15,0-3.19,2.58-5.11,6.38-5.11,2.23,0,4.88.73,6.92,2.11v-2.38c-2.23-1.23-4.38-1.81-7.07-1.81-5.27,0-8.73,3.08-8.73,7.23,0,3.23,1.35,5.69,5.31,7.88Zm-18.38-1.04h7.73v9.57c-2.61.88-5.38,1.15-7.96,1.15-7.57,0-12.03-5-12.03-11.22,0-6.88,5.15-11.46,12.53-11.46,3.11,0,6.42.77,9.23,2.08v-2.23c-3-1.35-6.11-1.96-9.38-1.96C6.38,22.25.04,27.86.04,35.82c0,6.77,4.81,13.34,14.38,13.34,4.04,0,7.57-.46,10.42-1.77v-13.19h-10.03v2.11Zm48.83-5.65c0-2.84-2.11-4.34-5.34-4.34h-6.3v9.19h5.23c4.27,0,6.42-1.46,6.42-4.84Zm-9.15-2.23h3.61c1.96,0,3.04.69,3.04,2.42,0,2.23-1.81,2.58-3.77,2.58h-2.88v-5Zm30.99,18.61c-7.88,0-12.03-5.8-12.03-11.22,0-6.92,5.61-11.46,12.11-11.46,2.63,0,5.49.68,8.12,1.78.23-.64.49-1.27.76-1.88-3.14-1.36-6.18-2.01-9.04-2.01-7.96,0-14.45,5.88-14.45,13.57,0,6.15,4.54,13.34,14.38,13.34,2.84,0,5.62-.51,8.37-1.7-.22-.62-.42-1.24-.61-1.88-2.48,1.03-5.12,1.47-7.61,1.47Zm.5-18.91c2.25,0,4.54.5,6.69,1.42.15-.64.32-1.27.51-1.9-2.4-1.05-5.05-1.64-7.43-1.64-6.46,0-10.42,4.31-10.42,9.76s3.92,9.61,10.38,9.61c2.14,0,4.71-.51,6.95-1.42-.15-.65-.29-1.31-.4-1.98-2.02.83-4.18,1.28-6.36,1.28-5.38,0-8.07-3.34-8.07-7.5s2.65-7.65,8.15-7.65Zm-22.07,8.61c2.54-1.19,4.04-3.23,4.04-6.42,0-4.04-2.69-7.73-8.8-7.73h-11.42v26.22h2.46v-24.1h8.42c4.5,0,6.84,2.38,6.84,5.92,0,3.27-1.92,5.31-5.31,5.88v.23c1.92.58,3.27,1.77,4.84,4.42l4.38,7.65h2.81l-4.92-8.38c-1.35-2.31-2.11-3.11-3.34-3.69Z"/>
        <path class="cls-1" d="m148.6,38.12c-.74,14.11-12.78,24.95-26.89,24.21-14.11-.74-24.95-12.78-24.21-26.89.74-14.11,12.78-24.95,26.89-24.21,14.11.74,24.95,12.78,24.21,26.89"/>
        <path class="cls-3" d="m159.81,20.46c0,11.3-9.16,20.46-20.46,20.46s-20.46-9.16-20.46-20.46S128.05,0,139.35,0s20.46,9.16,20.46,20.46"/>
        <path class="cls-2" d="m39.55,61.53h.83l.67-3.48h-.84l-.66,3.48Zm54.1-2.84h.78l.13-.64h-.79l.18-.96-.85.21-.14.75h-.47l-.12.64h.47l-.3,1.55c-.06.26-.08.45-.08.65,0,.4.26.72.83.72.2,0,.42-.03.54-.07l.08-.65c-.09.01-.19.01-.29.01-.22,0-.31-.12-.31-.31,0-.15.03-.33.06-.49l.28-1.41Zm-74.19,1.73c0,.7.41,1.19,1.03,1.19.44,0,.9-.22,1.24-.87h.02c-.03.3-.06.58-.06.79h.77c-.01-.41.04-1.07.14-1.59l.36-1.82c-.26-.09-.67-.16-1.05-.16-1.62,0-2.45,1.27-2.45,2.45Zm2.39-.86c-.16.89-.64,1.37-1.02,1.37-.36,0-.5-.3-.5-.67,0-.79.59-1.66,1.37-1.66.15,0,.26.01.34.04l-.19.92Zm6.05-.92c.23,0,.39.05.52.11l.21-.65c-.13-.06-.4-.14-.71-.14-1.29,0-2.22,1.03-2.22,2.25,0,.83.54,1.39,1.41,1.39.44,0,.8-.09,1-.19l-.03-.64c-.18.08-.42.16-.74.16-.46,0-.77-.29-.77-.82,0-.72.51-1.47,1.32-1.47Zm3.29-.68c-.49,0-.87.24-1.17.6h-.01l.41-2.12h-.84l-.96,5.08h.83l.31-1.66c.14-.74.59-1.22,1-1.22.31,0,.44.21.44.47,0,.17-.02.32-.04.46l-.37,1.95h.83l.39-2.01c.04-.19.06-.44.06-.61,0-.64-.39-.94-.87-.94Zm7.04,0c-.49,0-.93.24-1.25.71h-.01l.07-.63h-.74c-.04.3-.09.67-.18,1.08l-.45,2.4h.83l.3-1.61c.15-.82.64-1.27,1.02-1.27.33,0,.44.21.44.5,0,.14-.02.29-.04.41l-.37,1.97h.83l.39-2.02c.04-.18.06-.42.06-.58,0-.66-.39-.96-.89-.96Zm-4.35,3.56h.84l.92-4.82h-.84l-.92,4.82Zm-8.28-3.56c-.48,0-.86.34-1.09.82h-.02c.04-.26.06-.5.08-.74h-.72c-.04.31-.09.84-.18,1.34l-.41,2.15h.83l.26-1.4c.14-.74.51-1.34,1.11-1.34.06,0,.11,0,.16.01l.16-.82c-.06,0-.12-.01-.18-.01Zm73.32,2.5c-.34,0-.59.28-.59.62,0,.29.2.51.5.51.34,0,.59-.26.59-.6,0-.31-.21-.53-.51-.53Zm-80.86-2.5c-1.2,0-1.97,1.14-1.97,2.2,0,.85.46,1.44,1.43,1.44.42,0,.89-.09,1.23-.27l-.08-.61c-.25.13-.57.23-.96.23-.33,0-.58-.12-.72-.36-.08-.14-.11-.37-.09-.49,1.34.03,2.28-.26,2.28-1.15,0-.58-.44-.98-1.12-.98Zm-1.07,1.51c.1-.42.44-.89.97-.89.26,0,.44.14.44.36,0,.41-.55.54-1.41.52Zm-14.56-2.77l-2.42,4.82h.89l.66-1.37h1.52l.14,1.37h.87l-.61-4.82h-1.04Zm-.61,2.8l.59-1.2c.14-.29.26-.63.39-.92h.01c.02.29.05.66.07.92l.14,1.2h-1.2Zm7.44-2.52c-.3-.22-.74-.31-1.21-.31-.43,0-.88.04-1.19.11l-.9,4.74h.82l.38-1.99h.41c.44,0,.67.22.7.84.04.58.09,1.04.13,1.15h.86c-.08-.19-.11-.75-.17-1.35-.04-.46-.18-.79-.49-.92v-.02c.62-.19,1.12-.67,1.12-1.38,0-.39-.19-.69-.46-.87Zm-1.5,1.92h-.47l.29-1.52c.1-.03.24-.04.44-.04.47,0,.82.2.82.64,0,.52-.44.92-1.09.92Zm5.82.21c0,.4.29.7.69.91.34.18.46.31.46.54s-.2.42-.54.43c-.31,0-.66-.14-.84-.24l-.21.6c.19.14.57.25.97.25.84,0,1.48-.42,1.48-1.19,0-.44-.34-.73-.72-.94-.29-.15-.45-.29-.45-.48,0-.24.21-.41.53-.41.29,0,.52.09.65.16l.21-.6c-.16-.09-.46-.18-.82-.18-.82,0-1.41.47-1.41,1.14Zm83.95-2.66l-.31,1.62c-.15-.06-.36-.1-.54-.1-1.28,0-2.17,1.12-2.17,2.35,0,.79.44,1.29,1.06,1.29.45,0,.88-.22,1.19-.7h.01l-.07.62h.77c.02-.38.08-.84.16-1.24l.73-3.84h-.83Zm-.64,3.35c-.14.72-.59,1.13-.96,1.13-.39,0-.56-.33-.56-.75,0-.78.53-1.57,1.24-1.57.21,0,.38.06.48.14l-.21,1.06Zm-84.98-1.84c-1.2,0-1.97,1.14-1.97,2.2,0,.85.46,1.44,1.43,1.44.42,0,.89-.09,1.23-.27l-.08-.61c-.25.13-.56.23-.96.23-.33,0-.58-.12-.72-.36-.08-.14-.11-.37-.09-.49,1.34.03,2.28-.26,2.28-1.15,0-.58-.44-.98-1.12-.98Zm-1.07,1.51c.1-.42.44-.89.97-.89.26,0,.44.14.44.36,0,.41-.55.54-1.41.52Zm32.74,2.05h.83l.67-3.48h-.84l-.66,3.48Zm14.94-3.56c-1.2,0-1.97,1.14-1.97,2.2,0,.85.46,1.44,1.43,1.44.42,0,.89-.09,1.23-.27l-.08-.61c-.25.13-.57.23-.96.23-.33,0-.58-.12-.72-.36-.08-.14-.11-.37-.09-.49,1.34.03,2.28-.26,2.28-1.15,0-.58-.44-.98-1.12-.98Zm-1.07,1.51c.1-.42.44-.89.97-.89.26,0,.44.14.44.36,0,.41-.55.54-1.41.52Zm27.51-2.27c-.7.52-1.13,1.37-1.13,2.37,0,1.25.8,2.02,2.05,2.02.57,0,1-.1,1.26-.21l-.08-.68c-.26.12-.61.19-.97.19-.95,0-1.37-.61-1.37-1.42,0-.7.27-1.31.69-1.68.33-.29.77-.44,1.23-.44.42,0,.75.09.91.17l.24-.67c-.14-.09-.52-.22-1.05-.22-.69,0-1.29.19-1.8.57Zm-3.85-.53c-.45,0-.88.04-1.27.11l-.89,4.71c.27.04.74.07,1.25.07.99,0,1.7-.19,2.25-.65.61-.5.98-1.33.98-2.24,0-.67-.22-1.12-.55-1.42-.39-.38-.99-.58-1.77-.58Zm.84,3.61c-.35.39-.87.59-1.52.59-.19,0-.36,0-.53-.03l.66-3.46c.14-.03.34-.04.54-.04,1.01,0,1.43.54,1.43,1.34,0,.63-.19,1.2-.57,1.6Zm-26.14-2.24l-.87,1.75c-.19.41-.29.67-.38.89h-.02c-.01-.23-.06-.49-.1-.91l-.22-1.73h-.86l.59,3.48h.84l1.94-3.48h-.92Zm10.62-1.35c-.33.29-.5.73-.58,1.17l-.04.18h-.45l-.12.64h.45l-.54,2.84h.83l.54-2.84h.72l.12-.64h-.72l.03-.16c.08-.45.3-.82.69-.82.14,0,.25.02.34.06l.16-.66c-.09-.05-.27-.09-.51-.09-.32,0-.66.1-.92.32Zm5.31.69c.44,0,.79.09,1.02.2l.26-.7c-.17-.09-.61-.22-1.22-.22-.81,0-1.53.26-2.06.71-.62.54-.97,1.34-.97,2.2,0,.55.17,1.08.55,1.44.38.38.92.56,1.59.56.59,0,1.14-.15,1.47-.26l.46-2.43h-1.66l-.14.67h.85l-.23,1.21c-.14.06-.36.11-.62.11-.9,0-1.37-.5-1.37-1.37,0-.66.27-1.28.71-1.65.36-.31.83-.47,1.34-.47Zm-19.02-.79c-.27,0-.5.21-.5.51,0,.26.17.44.43.44.28,0,.51-.19.52-.5,0-.26-.19-.45-.44-.45Zm10.59,1.37c-1.19,0-2.01,1.02-2.01,2.2,0,.83.54,1.44,1.42,1.44,1.19,0,2.02-1.02,2.02-2.2,0-.77-.49-1.44-1.43-1.44Zm-.47,3c-.42,0-.68-.34-.68-.82,0-.65.39-1.54,1.05-1.54.51,0,.67.44.67.8,0,.69-.41,1.55-1.04,1.55Zm13.57-2c-.21.41-.44.92-.61,1.38h-.03c0-.46-.06-.96-.09-1.39l-.26-2.25h-1.1l-1.22,4.82h.77l.55-2.27c.12-.49.26-1.22.39-1.77h.01c.03.57.07,1.19.13,1.73l.25,2.25h.64l1.19-2.28c.26-.51.55-1.13.8-1.69h.02c-.12.59-.22,1.27-.29,1.77l-.32,2.27h.81l.64-4.82h-1.12l-1.17,2.26Zm-24.98,2.56h.83l.67-3.48h-.84l-.66,3.48Zm-6.54-4.93c-.27,0-.5.21-.5.51,0,.26.17.44.43.44.28,0,.51-.19.52-.5,0-.26-.19-.45-.44-.45Zm-2.11,2.1h.78l.13-.64h-.79l.18-.96-.85.21-.14.75h-.47l-.12.64h.47l-.3,1.55c-.06.26-.08.45-.08.65,0,.4.26.72.83.72.2,0,.42-.03.54-.07l.08-.65c-.09.01-.19.01-.29.01-.22,0-.31-.12-.31-.31,0-.15.03-.33.06-.49l.28-1.41Zm-1.91-2.1c-.27,0-.5.21-.5.51,0,.26.17.44.43.44.28,0,.51-.19.52-.5,0-.26-.19-.45-.44-.45Zm9.74,2.1h.78l.13-.64h-.79l.18-.96-.85.21-.14.75h-.47l-.12.64h.47l-.3,1.55c-.06.26-.08.45-.08.65,0,.4.26.72.83.72.2,0,.42-.03.54-.07l.08-.65c-.09.01-.19.01-.29.01-.22,0-.31-.12-.31-.31,0-.15.03-.33.06-.49l.28-1.41Zm-5.25,1.73c0,.7.41,1.19,1.03,1.19.44,0,.9-.22,1.24-.87h.02c-.03.3-.06.58-.06.79h.77c-.01-.41.04-1.07.14-1.59l.36-1.82c-.26-.09-.67-.16-1.05-.16-1.62,0-2.45,1.27-2.45,2.45Zm2.39-.86c-.16.89-.64,1.37-1.02,1.37-.36,0-.5-.3-.5-.67,0-.79.59-1.66,1.37-1.66.15,0,.26.01.34.04l-.19.92Zm43.05-2.85h-.84l-.92,4.82h2.73l.14-.73h-1.9l.78-4.09Z"/>
        <path class="cls-3" d="m132.68,13.06l-13.02,13.02c.12.43.25.85.4,1.26l13.78-13.78c-.38-.18-.77-.35-1.16-.51Zm5.09,2.79l-15.66,15.66c.22.34.44.67.68.99l15.94-15.94c-.31-.24-.63-.48-.96-.71Zm10.76,18.68l-6.19,6.19c.71-.11,1.41-.25,2.09-.42l4.19-4.19c-.01-.53-.04-1.06-.09-1.58Zm-24.01-23.3l-5.25,5.25c-.13.64-.23,1.3-.29,1.96l7.07-7.07c-.51-.06-1.02-.11-1.53-.14Zm22.93,17.83l-11.59,11.59c.48.08.97.15,1.46.2l10.5-10.5c-.11-.44-.24-.87-.37-1.29Zm-5.87-9.91l-16.25,16.25c.29.27.58.53.88.79l16.16-16.16c-.26-.3-.52-.59-.79-.87Zm4.52,6.51l-13.98,13.98c.41.15.82.3,1.24.43l13.26-13.26c-.16-.39-.34-.77-.52-1.15Z"/>
        <path class="cls-2" d="m105.17,39.71c.76-.57,1.67-.75,2.5-1.17.59-.3,1.23-.54,1.85-.79.54-.22.89-.55,1.33-.93.52-.44.99-.87,1.36-1.44.64-.99,1.34-1.92,1.91-2.97.69-1.27,1.73-2.3,2.64-3.39.77-.94,1.45-1.87,2.4-2.63.16-.13.32-.25.49-.37,0,.02,0,.04.01.06l13.02-13.02c-2.09-.85-4.31-1.43-6.63-1.7l-7.06,7.06s0-.06,0-.08c-.25.46-.24,1.02-.35,1.52-.15.68-.65,1.17-1.19,1.58-.49.37-.9.95-1.31,1.4-.21.23-.32.52-.55.74-.2.2-.49.33-.65.57-.15.23-.27.44-.47.66-.14.16-.24.34-.4.49-.09.09-.24.14-.32.24-.16.17-.18.35-.39.49-.19.13-.43.21-.6.37-.42.4-.63.91-1.02,1.34-.42.46-.89.86-1.36,1.26-.59.52-1.38.87-2.06,1.28-.76.46-1.37,1.04-2.1,1.47-.3.18-.49.43-.76.64-.73.56-1.49,1.04-2.26,1.54-.41.26-.66.59-1.01.9-.44.39-1.07.6-1.58.88-.57.31-1.11.67-1.6,1.1-.5.45-1.04.76-1.53,1.19.1,2.15.47,4.23,1.07,6.22.04-.03.09-.06.14-.09,1.38-1.03,2.93-1.63,4.31-2.63.75-.55,1.42-1.22,2.16-1.78Zm30.69.93l11.59-11.59c-.24-.77-.52-1.52-.83-2.26l-13.26,13.26c.81.25,1.65.44,2.5.59Zm-33.74-17.47c.36-.29.75-.57,1.16-.79.46-.25.76-.65,1.15-.95.59-.45,1.05-.97,1.54-1.53.19-.22.37-.47.59-.66.24-.22.52-.38.78-.56.32-.23.54-.42.9-.6.29-.14.48-.4.74-.58.28-.2.51-.38.76-.61.44-.4.81-.88,1.25-1.28.49-.44,1.03-.81,1.5-1.28.26-.26.6-.47.84-.75.2-.23.39-.46.58-.69-5.59,2.14-10.27,6.2-13.19,11.4.05-.03.09-.05.14-.08.55-.25.81-.69,1.26-1.05Zm23.22,12.22l16.25-16.25c-.88-.93-1.84-1.79-2.85-2.58l-15.94,15.94c.76,1.04,1.61,2,2.54,2.88Zm-25.97-1.81c.47-.42,1-.74,1.48-1.14.91-.74,1.94-1.39,2.92-2.05,1.16-.78,2.31-1.78,3.36-2.73.97-.89,2.27-1.33,3.16-2.3.59-.64,1.03-1.45,1.69-2.02.66-.58,1.41-1.1,1.93-1.81.33-.44.77-.79,1.09-1.24.37-.51.71-1.04,1.08-1.55.53-.71.96-1.45,1.46-2.19.31-.46.69-.87,1.05-1.29.4-.47.82-.95,1.29-1.35.04-.03.08-.07.12-.1-.3.86-.54,1.75-.72,2.66l5.25-5.25c-.49-.03-.99-.05-1.49-.05-.66,0-1.31.03-1.96.08,0,0,0,.02-.01.03-1.29.1-2.55.29-3.78.57-.4.54-.8,1.08-1.23,1.6-1.78,2.23-4.01,4.07-5.75,6.29-.42.54-.88,1.02-1.34,1.51-.31.32-.56.85-.9,1.12-.32.26-.74.36-1.08.64-.83.66-1.73,1.15-2.56,1.82-.33.27-.71.42-1.06.67-.3.21-.48.57-.72.83-.34.38-.82.67-1.18,1.02-.29.28-.64.46-.92.74-.28.28-.64.51-.96.75-.37.28-.74.55-1.11.82-.52,1.81-.86,3.71-.97,5.67.05-.04.1-.08.15-.12.59-.52,1.11-1.12,1.7-1.64Zm24.44,23.03c.33-.24.67-.59,1.07-.76.54-.23,1.23-.29,1.72-.68.28-.22.65-.37.88-.63.34-.37.52-.6.95-.87.65-.42,1.35-.82,1.92-1.35.26-.25.55-.45.8-.71.29-.3.54-.63.82-.93.24-.26.48-.52.74-.75.05-.05.08-.11.13-.15.05-.05.13-.06.19-.09.27-.15.5-.42.71-.63.25-.24.47-.48.66-.78.06-.09.14-.17.19-.27.04-.07.05-.14.09-.22.08-.16.24-.27.36-.4.22-.24.4-.51.63-.75.49-.51.97-1.02,1.41-1.57.17-.21.33-.36.54-.52.24-.19.43-.47.63-.7.44-.5.88-1.03,1.4-1.45.31-.25.51-.62.81-.9.23-.21.51-.4.72-.64.39-.04.78-.08,1.17-.14l6.19-6.19c-.13-1.43-.36-2.83-.71-4.19l-10.48,10.48c-.19-.02-.39-.03-.58-.06-.09.15-.17.29-.27.42-.54.68-1.04,1.38-1.55,2.08-.46.64-.89,1.22-1.48,1.76-.37.34-.89.51-1.21.9-.15.19-.21.38-.4.55-.21.19-.43.38-.67.53-.47.29-.77.64-1.15,1.04-.38.41-.78.82-1.16,1.22-.2.21-.34.42-.58.58-.42.27-.77.66-1.16.96-.39.3-.82.59-1.15.96-.44.48-.86.94-1.44,1.25-.13.07-.22.17-.35.23-.17.07-.36.11-.54.17-.38.13-.71.21-1.06.41-.59.33-1.13.73-1.68,1.12-2.57,1.84-5.15,3.67-7.77,5.44,1.27.53,2.6.97,3.98,1.29.08-.03.16-.07.25-.1.46-.18.81-.39,1.21-.68.36-.26.6-.63.94-.92.33-.29.67-.57.98-.88.6-.58,1.07-1.14,1.81-1.59.48-.3,1.04-.56,1.49-.9Zm24.82-20.49l-4.17,4.17c-.3.08-.6.16-.91.22-.38.45-.76.89-1.12,1.35-.94,1.19-1.96,2.32-2.87,3.53-.54.72-1.12,1.4-1.71,2.07-.07.07-.13.15-.2.22-.7,1.09-1.88,1.61-2.72,2.75-.07.07-.14.14-.22.2-1.15,1.09-2.34,2.15-3.5,3.22-1.53,1.41-3.17,2.69-4.69,4.11-1.7,1.58-3.5,3.01-5.37,4.34.19.01.38.03.57.04.98.05,1.96.04,2.92-.02.03-.03.05-.06.08-.09.26-.21.58-.34.82-.58.58-.59,1.32-.87,1.96-1.38.3-.23.61-.48.87-.75.23-.23.37-.45.67-.59.28-.12.5-.23.65-.5.16-.3.35-.47.61-.69.24-.22.45-.44.68-.67.31-.32.68-.58,1.03-.85.3-.22.52-.49.77-.76.23-.24.48-.44.74-.65.11-.09.25-.17.34-.27.1-.11.13-.27.23-.38.14-.17.35-.24.54-.34.39-.2.69-.55,1.02-.84.69-.6,1.24-1.36,1.98-1.89.34-.25.66-.6.9-.94.25-.36.47-.76.83-1.03.24-.18.41-.43.62-.65.69-.73,1.24-1.47,1.97-2.2.74-.74,1.11-1.43,1.31-2.42.18-.89.99-1.58,1.57-2.28.52-.63,1.04-1.25,1.57-1.88-.12.04-.25.08-.37.12.51-.18,1.01-.36,1.5-.58,0,0-.01,0-.02,0-.11.32-.21.64-.36.96-.28.61-.66,1.19-.9,1.81-.11.3-.35.5-.48.77-.19.4-.39.76-.67,1.11-.3.37-.36.63-.5,1.07-.17.54-.61.94-.86,1.45-.21.44-.32.94-.52,1.38-.19.4-.5.75-.71,1.13-.59,1.06-1.73,1.83-2.47,2.8-.37.48-.81.89-1.26,1.29-.34.31-.73.54-.96.96-.22.4-.2.54-.56.83-.44.35-.84.69-1.35.96-.34.18-.66.5-.95.77-.41.38-.37.98-.68,1.37-.41.51-.83,1.07-1.47,1.23-.47.12-.84.34-1.26.56-.39.2-.57.49-.91.75-.14.11-.31.19-.47.26-.24.09-.43.11-.56.34-.07.13-.06.3-.14.42-.04.05-.09.09-.14.13,10.41-2.62,18.4-11.65,19.26-22.85,0,0,0,0,0,0,.05-.65.08-1.3.08-1.96,0-.23-.01-.45-.02-.68Zm-44.27,11.4c.25-.24.48-.49.73-.71.28-.25.52-.39.87-.53.22-.09.37-.17.55-.32.25-.22.54-.22.82-.38.22-.13.36-.34.61-.44.32-.13.53-.38.81-.59.47-.35.89-.64,1.18-1.15.13-.22.3-.32.51-.45.26-.16.36-.41.57-.62.12-.12.23-.23.33-.36.37-.48.73-1.02,1.18-1.43.26-.24.51-.48.76-.73.41-.42.85-.79,1.29-1.18.22-.19.44-.38.65-.58.16-.16.33-.25.53-.37.1-.07.13-.14.21-.23.32-.34.79-.56,1.14-.89.41-.38.79-.8,1.14-1.24.72-.92,1.98-1.25,2.54-2.24.14-.25.29-.51.43-.76.2-.36.43-.77.69-1.14.07.12.14.24.21.36l15.66-15.66c-1.24-.87-2.55-1.64-3.93-2.28l-13.78,13.78c.16.44.33.87.52,1.29-.24.12-.46.24-.66.44-.46.45-.78,1.02-1.28,1.43-1.12.91-1.92,2.12-2.82,3.23-.78.96-1.52,1.95-2.37,2.84-.82.85-1.73,1.53-2.61,2.34-.46.42-.96.73-1.38,1.18-.55.6-1.18,1.15-1.82,1.65-.41.32-.83.88-1.32,1.02-1.17.31-2.31.97-3.39,1.58-.68.39-1.24.82-1.83,1.32-.5.42-1.09.69-1.62,1.05.46,1.08.99,2.13,1.58,3.13.29-.22.53-.5.86-.68.43-.24.8-.56,1.2-.83.43-.29.87-.46,1.25-.82Zm11.18,8.07c.35-.28.63-.49,1.05-.61.35-.1.67-.29.92-.55.29-.29.59-.53.9-.8.61-.54,1.28-.88,1.94-1.32.23-.15.4-.36.62-.52.21-.15.42-.28.61-.45.25-.22.53-.38.75-.62.24-.25.49-.3.77-.49.19-.13.3-.3.47-.44.19-.16.38-.31.55-.49.41-.4.8-.85,1.27-1.19.15-.11.34-.16.47-.29.19-.2.34-.47.54-.68.25-.26.46-.42.75-.61.33-.21.46-.51.74-.75.31-.28.6-.52.82-.88.09-.15.19-.28.31-.41.37-.38.7-.8,1.11-1.15.37-.32.61-.65.9-1.03.2-.25.27-.54.44-.83.07-.11.14-.28.22-.37.17-.21.42-.36.61-.54.21-.2.41-.43.61-.65-.27-.09-.53-.19-.8-.29l13.96-13.96c-.99-2.05-2.25-3.94-3.72-5.63l-16.15,16.15c-.16-.14-.33-.27-.48-.41-.15.19-.29.39-.49.56-.32.26-.57.52-.84.83-1.68,1.93-3.92,2.69-5.99,4.12-.92.63-1.94.99-2.73,1.75-1.64,1.58-3.16,3.12-5.07,4.4-.6.4-1.14.6-1.67,1.1-1.48,1.39-3.08,1.97-4.99,2.75-.42.17-.84.33-1.27.52-.1.04-.19.09-.29.14.77,1.05,1.62,2.05,2.55,2.97.16-.13.31-.28.48-.39.32-.22.68-.34,1.01-.53.5-.28,1.05-.29,1.56-.5.65-.26,1.27-.63,1.92-.89.68-.27,1.28-.73,1.85-1.14.31-.22.73-.5,1.07-.65.25-.11.55-.17.79-.3.27-.14.47-.4.7-.58.73-.57,1.6-.79,2.43-1.17.45-.2,1-.42,1.38-.73.18-.14.29-.31.48-.44.59-.4,1.3-.69,1.87-1.11.34-.25.69-.51,1.05-.74.12-.08.26-.11.38-.19.15-.1.2-.29.33-.4.08-.07.18-.13.26-.2.19-.19.18-.39.28-.63.06-.14.16-.23.2-.38.09-.38.26-.76.51-1.06.13-.15.28-.31.36-.49.04-.08.06-.18.12-.24.04-.04.1-.06.14-.11.12-.13.21-.33.37-.4.06-.03.13-.03.19-.06.09-.05.16-.12.24-.17.15-.09.3-.18.44-.3.33-.27.66-.55.99-.82.32-.26.6-.52.87-.83.1-.11.2-.18.32-.27.16-.13.28-.28.42-.43.2-.22.49-.35.69-.55.05-.05.1-.09.15-.14.62.37,1.27.72,1.94,1.02-.03.04-.06.08-.1.12-.22.25-.35.52-.55.77-.24.3-.53.63-.82.88-.47.42-.94.92-1.44,1.28-.36.27-.68.51-.99.85-.41.45-.75.98-1.26,1.32-.53.36-.9.83-1.36,1.27-.39.38-.84.66-1.24,1.03-.46.43-.94.83-1.41,1.25-.73.66-1.52,1.33-2.14,2.08-.38.47-.89.79-1.37,1.16-.37.29-.77.66-1.2.86-.42.19-.77.46-1.17.68-.52.28-.96.67-1.48.94-.17.09-.38.14-.54.24-.24.14-.44.36-.68.52-.37.23-.61.55-1.02.74-.32.14-.55.31-.84.48-.31.18-.66.25-.97.44-.27.17-.56.24-.84.38-.29.14-.27.32-.65.35-.32.02-.44.11-.7.26-.17.1-.35.09-.52.13.8.61,1.63,1.18,2.5,1.69.16-.11.31-.26.46-.38.22-.17.45-.34.7-.46.21-.1.43-.15.65-.22.24-.09.34-.22.53-.38.47-.39,1.07-.54,1.6-.81.54-.28,1.13-.57,1.61-.95Z"/>
      </g>
    </g>
  </g>
</svg>